<svg xmlns="http://www.w3.org/2000/svg" xmlns:xlink="http://www.w3.org/1999/xlink" width="32" height="32" viewBox="0 0 32 32"><defs><path id="a" d="M0 .217h31.283V31.5H0z"/><path id="c" d="M6.404.196v9.898c0 3.951-1.1 5.921-4.338 8.238L.33 19.558l.826 1.17c.091.128.27.159.399.067l1.51-1.066c1.92-1.373 3.123-2.637 3.9-4.095.8-1.502 1.157-3.21 1.157-5.54V.482a.287.287 0 00-.286-.286H6.404z"/><path id="f" d="M.166.415h17.209V9.74H.166z"/><linearGradient id="d" x1="50%" x2="50%" y1="0%" y2="100%"><stop offset="0%" stop-color="#E6E6E6"/><stop offset="100%" stop-color="#595959"/></linearGradient></defs><g fill="none" fill-rule="evenodd"><path fill="#D8D8D8" fill-opacity=".15" d="M-725-147H822V80H-725z"/><g opacity=".15"><g transform="translate(0 .282)"><mask id="b" fill="#fff"><use xlink:href="#a"/></mask><path fill="#000" d="M24.252 31.5H7.03A7.03 7.03 0 010 24.469V7.248A7.03 7.03 0 017.03.218h17.222a7.03 7.03 0 017.03 7.03v17.221a7.03 7.03 0 01-7.03 7.031" mask="url(#b)"/></g><path fill="#FFF" d="M12.45 26.009l-2.271-3.212a.286.286 0 01.069-.4l1.501-1.06c1.553-1.098 2.481-2.622 2.481-4.792v-9.78c0-.159.128-.287.286-.287h4.007v10.067c0 3.95-1.1 5.92-4.338 8.238l-1.735 1.226z"/><g transform="translate(12 6.282)"><mask id="e" fill="#fff"><use xlink:href="#c"/></mask><path fill="url(#d)" d="M6.404.196v9.898c0 3.951-1.1 5.921-4.338 8.238L.33 19.558l.826 1.17c.091.128.27.159.399.067l1.51-1.066c1.92-1.373 3.123-2.637 3.9-4.095.8-1.502 1.157-3.21 1.157-5.54V.482a.287.287 0 00-.286-.286H6.404z" mask="url(#e)"/></g></g></g></svg>