<svg t="1676093833917" class="icon" viewBox="0 0 1024 1024" version="1.1" xmlns="http://www.w3.org/2000/svg" p-id="3189" width="200" height="200"><path d="M337.92 389.12h368.64v143.36H337.92z" fill="#888" p-id="3190"></path><path d="M972.8 191.488C972.8 113.664 910.336 51.2 832.512 51.2H191.488C113.664 51.2 51.2 113.664 51.2 191.488v641.024C51.2 910.336 113.664 972.8 191.488 972.8h641.024C910.336 972.8 972.8 910.336 972.8 832.512V191.488zM225.28 204.8h593.92v61.44H225.28v-61.44z m552.96 112.64v286.72H266.24V317.44h512z m71.68 501.76H204.8v-61.44h179.2c-17.408-51.2-39.936-75.776-67.584-116.736l67.584-26.624c26.624 39.936 50.176 92.16 71.68 143.36h126.976c25.6-51.2 47.104-91.136 66.56-143.36l72.704 26.624c-19.456 44.032-39.936 86.016-61.44 116.736H849.92v61.44z" fill="#888" p-id="3191"></path></svg>