<svg xmlns="http://www.w3.org/2000/svg" xmlns:xlink="http://www.w3.org/1999/xlink" width="43" height="43" viewBox="0 0 43 43"><defs><path id="a" d="M0 .15h42.09v42.09H0z"/><path id="c" d="M8.46.003v13.49c0 5.384-1.5 8.07-5.914 11.227L.18 26.39l1.126 1.593a.39.39 0 00.544.094l2.057-1.454c2.617-1.873 4.257-3.594 5.315-5.582 1.091-2.046 1.577-4.375 1.577-7.55V.393a.39.39 0 00-.39-.39H8.46z"/><path id="f" d="M.148.067h25.596v13.874H.148z"/><linearGradient id="d" x1="50%" x2="50%" y1="0%" y2="100%"><stop offset="0%" stop-color="#E9FFFF"/><stop offset="100%" stop-color="#01B1E7"/></linearGradient></defs><g fill="none" fill-rule="evenodd"><path fill="#FFF" d="M-81-41h1440v1553H-81z"/><g transform="translate(0 .09)"><mask id="b" fill="#fff"><use xlink:href="#a"/></mask><path fill="#FFE411" d="M32.63 42.24H9.46A9.46 9.46 0 010 32.78V9.61A9.46 9.46 0 019.46.15h23.17a9.46 9.46 0 019.46 9.46v23.17a9.46 9.46 0 01-9.46 9.46" mask="url(#b)"/></g><path fill="#FEFEFE" d="M16.423 34.63l-3.095-4.378a.39.39 0 01.094-.544l2.046-1.446c2.117-1.497 3.381-3.573 3.381-6.53V8.401a.39.39 0 01.39-.39h5.462v13.72c0 5.383-1.5 8.07-5.913 11.227l-2.365 1.671z"/><g transform="translate(16.08 8.01)"><mask id="e" fill="#fff"><use xlink:href="#c"/></mask><path fill="url(#d)" d="M8.46.003v13.49c0 5.384-1.5 8.07-5.914 11.227L.18 26.39l1.126 1.593a.39.39 0 00.544.094l2.057-1.454c2.617-1.873 4.257-3.594 5.315-5.582 1.091-2.046 1.577-4.375 1.577-7.55V.393a.39.39 0 00-.39-.39H8.46z" mask="url(#e)"/></g></g></svg>